<svg xmlns="http://www.w3.org/2000/svg" xmlns:xlink="http://www.w3.org/1999/xlink" width="1080" zoomAndPan="magnify" viewBox="0 0 810 809.999993" height="1080" preserveAspectRatio="xMidYMid meet" version="1.0"><defs><clipPath id="39c7780653"><path d="M 317 244 L 484 244 L 484 570 L 317 570 Z M 317 244 " clip-rule="nonzero"/></clipPath><clipPath id="a11eff9a68"><path d="M 527.507812 267.4375 L 453.171875 582.792969 L 282.351562 542.527344 L 356.691406 227.167969 Z M 527.507812 267.4375 " clip-rule="nonzero"/></clipPath><clipPath id="525901fdc7"><path d="M 527.507812 267.4375 L 453.171875 582.792969 L 282.351562 542.527344 L 356.691406 227.167969 Z M 527.507812 267.4375 " clip-rule="nonzero"/></clipPath><clipPath id="e95a1371d8"><path d="M 316 243 L 485 243 L 485 571 L 316 571 Z M 316 243 " clip-rule="nonzero"/></clipPath><clipPath id="3b8f7badc9"><path d="M 527.507812 267.4375 L 453.171875 582.792969 L 282.351562 542.527344 L 356.691406 227.167969 Z M 527.507812 267.4375 " clip-rule="nonzero"/></clipPath><clipPath id="2cfe1b3109"><path d="M 527.507812 267.4375 L 453.171875 582.792969 L 282.351562 542.527344 L 356.691406 227.167969 Z M 527.507812 267.4375 " clip-rule="nonzero"/></clipPath><clipPath id="789e051ab3"><path d="M 330 257 L 471 257 L 471 557 L 330 557 Z M 330 257 " clip-rule="nonzero"/></clipPath><clipPath id="ddc3159a32"><path d="M 527.507812 267.4375 L 453.171875 582.792969 L 282.351562 542.527344 L 356.691406 227.167969 Z M 527.507812 267.4375 " clip-rule="nonzero"/></clipPath><clipPath id="6e912c1f3a"><path d="M 527.507812 267.4375 L 453.171875 582.792969 L 282.351562 542.527344 L 356.691406 227.167969 Z M 527.507812 267.4375 " clip-rule="nonzero"/></clipPath><clipPath id="8d6a07acde"><path d="M 329 256 L 472 256 L 472 558 L 329 558 Z M 329 256 " clip-rule="nonzero"/></clipPath><clipPath id="59bc6d6d20"><path d="M 527.507812 267.4375 L 453.171875 582.792969 L 282.351562 542.527344 L 356.691406 227.167969 Z M 527.507812 267.4375 " clip-rule="nonzero"/></clipPath><clipPath id="b852bc0488"><path d="M 527.507812 267.4375 L 453.171875 582.792969 L 282.351562 542.527344 L 356.691406 227.167969 Z M 527.507812 267.4375 " clip-rule="nonzero"/></clipPath><clipPath id="c195a3198e"><path d="M 340 266 L 471 266 L 471 557 L 340 557 Z M 340 266 " clip-rule="nonzero"/></clipPath><clipPath id="9f107af769"><path d="M 527.507812 267.4375 L 453.171875 582.792969 L 282.351562 542.527344 L 356.691406 227.167969 Z M 527.507812 267.4375 " clip-rule="nonzero"/></clipPath><clipPath id="2d743672a1"><path d="M 527.507812 267.4375 L 453.171875 582.792969 L 282.351562 542.527344 L 356.691406 227.167969 Z M 527.507812 267.4375 " clip-rule="nonzero"/></clipPath><clipPath id="09c3609f4d"><path d="M 339 265 L 472 265 L 472 558 L 339 558 Z M 339 265 " clip-rule="nonzero"/></clipPath><clipPath id="cd353e9759"><path d="M 527.507812 267.4375 L 453.171875 582.792969 L 282.351562 542.527344 L 356.691406 227.167969 Z M 527.507812 267.4375 " clip-rule="nonzero"/></clipPath><clipPath id="468962664d"><path d="M 527.507812 267.4375 L 453.171875 582.792969 L 282.351562 542.527344 L 356.691406 227.167969 Z M 527.507812 267.4375 " clip-rule="nonzero"/></clipPath></defs><g clip-path="url(#39c7780653)"><g clip-path="url(#a11eff9a68)"><g clip-path="url(#525901fdc7)"><path fill="#ffffff" d="M 350.660156 258.570312 C 352.519531 250.679688 359.484375 245.097656 367.59375 244.996094 L 419.164062 244.332031 C 423.8125 244.265625 428.394531 246.101562 431.738281 249.382812 L 435.464844 252.996094 L 437.179688 254.679688 L 437.351562 254.839844 L 437.550781 255.039062 L 437.800781 255.265625 L 439.332031 256.765625 C 443.847656 259.886719 446.671875 265.210938 446.746094 270.882812 L 448.664062 419.3125 L 456.101562 419.21875 C 460.804688 419.15625 465.417969 421.027344 468.753906 424.347656 L 469.304688 424.882812 L 469.566406 425.121094 L 471.84375 427.355469 L 472.054688 427.550781 L 472.824219 428.3125 L 476.371094 431.753906 C 482.113281 435.808594 484.847656 443.023438 483.199219 450.023438 L 483.089844 450.460938 C 482.71875 452 482.148438 453.464844 481.398438 454.808594 L 422.257812 560.378906 C 419.539062 565.230469 414.828125 568.453125 409.328125 569.210938 C 404.148438 569.933594 398.761719 568.25 394.925781 564.703125 L 394.707031 564.503906 L 393.328125 563.167969 L 391.097656 560.984375 L 385.355469 555.402344 L 385.191406 555.261719 L 384.867188 554.925781 C 383.804688 553.890625 382.847656 552.675781 382.0625 551.351562 L 320.246094 447.410156 C 317.898438 443.457031 317.183594 438.828125 318.234375 434.375 C 320.097656 426.472656 327.0625 420.886719 335.167969 420.78125 L 352.234375 420.5625 L 350.191406 262.847656 C 350.171875 261.40625 350.328125 259.96875 350.660156 258.570312 Z M 350.660156 258.570312 " fill-opacity="1" fill-rule="nonzero"/></g></g></g><g clip-path="url(#e95a1371d8)"><g clip-path="url(#3b8f7badc9)"><g clip-path="url(#2cfe1b3109)"><path fill="#000000" d="M 482.066406 449.761719 L 481.960938 450.1875 C 481.613281 451.628906 481.082031 452.992188 480.382812 454.25 L 421.242188 559.816406 C 418.703125 564.347656 414.300781 567.355469 409.164062 568.070312 C 404.289062 568.75 399.300781 567.175781 395.707031 563.855469 L 395.480469 563.652344 L 394.125 562.339844 L 391.902344 560.160156 L 386.160156 554.578125 L 385.953125 554.394531 L 385.710938 554.136719 C 384.679688 553.128906 383.789062 551.996094 383.054688 550.765625 L 321.238281 446.824219 C 319.046875 443.132812 318.378906 438.804688 319.359375 434.644531 C 321.097656 427.265625 327.609375 422.042969 335.183594 421.949219 L 353.40625 421.710938 L 351.351562 262.828125 C 351.332031 261.484375 351.480469 260.140625 351.789062 258.835938 C 353.527344 251.460938 360.035156 246.246094 367.609375 246.152344 L 419.179688 245.488281 C 423.527344 245.425781 427.800781 247.140625 430.925781 250.207031 L 431.800781 251.0625 L 434.65625 253.828125 L 436.359375 255.496094 L 436.519531 255.644531 L 436.71875 255.847656 L 437.015625 256.121094 L 438.515625 257.597656 C 442.824219 260.59375 445.515625 265.527344 445.582031 270.902344 L 447.515625 420.492188 L 456.113281 420.378906 C 460.515625 420.320312 464.808594 422.0625 467.933594 425.171875 C 467.933594 425.171875 468.496094 425.722656 468.5 425.722656 L 468.78125 425.980469 L 471.03125 428.183594 L 471.273438 428.40625 L 472.003906 429.136719 L 475.5625 432.585938 C 480.9375 436.394531 483.625 443.160156 482.070312 449.761719 M 484.320312 450.304688 L 484.320312 450.292969 C 486.066406 442.886719 483.214844 435.261719 477.050781 430.804688 L 473.617188 427.472656 L 472.90625 426.765625 L 472.59375 426.476562 L 470.402344 424.324219 L 470.085938 424.03125 L 469.554688 423.515625 C 466.007812 419.988281 461.097656 417.996094 456.085938 418.0625 L 449.804688 418.144531 L 447.902344 270.867188 C 447.828125 264.890625 444.878906 259.277344 440.011719 255.808594 L 438.644531 254.46875 L 438.339844 254.1875 L 438.195312 254.035156 L 438.140625 253.980469 L 438.082031 253.929688 L 437.921875 253.78125 L 436.285156 252.171875 L 433.414062 249.394531 L 432.546875 248.546875 C 428.992188 245.058594 424.109375 243.097656 419.152344 243.167969 L 367.582031 243.835938 C 358.941406 243.941406 351.519531 249.890625 349.539062 258.300781 C 349.1875 259.792969 349.019531 261.324219 349.039062 262.855469 L 351.066406 419.417969 L 335.15625 419.625 C 326.515625 419.730469 319.09375 425.6875 317.109375 434.101562 C 315.988281 438.851562 316.75 443.785156 319.25 447.996094 L 381.070312 551.9375 C 381.90625 553.347656 382.925781 554.640625 384.101562 555.789062 L 384.261719 555.964844 L 384.339844 556.050781 L 384.425781 556.128906 L 384.589844 556.269531 L 390.292969 561.8125 L 392.511719 563.988281 L 393.875 565.308594 L 394.15625 565.5625 C 398.230469 569.332031 403.96875 571.128906 409.488281 570.359375 C 415.347656 569.542969 420.371094 566.109375 423.265625 560.945312 L 482.402344 455.382812 C 483.207031 453.9375 483.816406 452.371094 484.210938 450.730469 L 484.3125 450.316406 L 484.316406 450.304688 Z M 484.320312 450.304688 " fill-opacity="1" fill-rule="nonzero"/></g></g></g><g clip-path="url(#789e051ab3)"><g clip-path="url(#ddc3159a32)"><g clip-path="url(#6e912c1f3a)"><path fill="#2b1511" d="M 363.542969 261.683594 C 364.269531 258.59375 366.964844 258.300781 369.433594 258.269531 L 378.21875 258.167969 C 383.941406 258.101562 389.664062 258.039062 395.386719 257.941406 C 400.886719 257.84375 406.382812 257.707031 411.886719 257.570312 L 419.070312 257.394531 C 419.167969 257.390625 419.265625 257.398438 419.363281 257.421875 L 421.515625 257.929688 C 421.726562 257.980469 421.917969 258.085938 422.070312 258.238281 L 424.683594 260.886719 C 426.765625 263 428.847656 265.113281 430.996094 267.160156 C 432.707031 268.796875 433.484375 270.621094 433.511719 273.089844 C 433.925781 309.597656 434.390625 346.101562 434.855469 382.609375 L 435.476562 432.402344 L 439.433594 432.339844 C 444.316406 432.261719 449.097656 432.1875 453.878906 432.171875 L 454.175781 432.171875 C 455.675781 432.160156 457.542969 432.144531 458.636719 433.179688 C 461.597656 435.996094 464.445312 439.003906 467.207031 441.90625 C 468.183594 442.9375 469.164062 443.96875 470.148438 444.996094 C 470.421875 445.28125 470.53125 445.683594 470.441406 446.066406 L 469.933594 448.222656 C 469.898438 448.367188 469.835938 448.507812 469.75 448.625 C 469.574219 448.867188 469.394531 449.105469 469.214844 449.34375 C 468.875 449.796875 468.53125 450.242188 468.253906 450.738281 C 455.453125 473.578125 442.664062 496.433594 429.878906 519.285156 C 429.878906 519.285156 414.921875 546.042969 411.113281 552.839844 C 410.0625 554.714844 408.671875 555.867188 407.203125 556.089844 C 406.398438 556.210938 405.183594 556.109375 403.96875 554.957031 L 402.808594 553.855469 C 399.066406 550.308594 395.191406 546.640625 392.097656 542.4375 C 389.441406 538.832031 387.222656 534.859375 385.074219 531.015625 C 384.089844 529.246094 383.101562 527.484375 382.074219 525.746094 L 332.183594 441.742188 C 331.117188 439.949219 330.738281 438.363281 331.050781 437.027344 C 331.332031 435.839844 332.441406 433.832031 336.738281 433.757812 C 342.261719 433.660156 347.785156 433.597656 353.3125 433.527344 L 361.597656 433.425781 C 364.679688 433.386719 364.957031 432.851562 365.179688 431.90625 C 365.308594 431.347656 365.367188 430.5625 365.351562 429.445312 L 363.308594 264.5625 C 363.292969 263.339844 363.367188 262.425781 363.542969 261.6875 Z M 363.542969 261.683594 " fill-opacity="1" fill-rule="nonzero"/></g></g></g><g clip-path="url(#8d6a07acde)"><g clip-path="url(#59bc6d6d20)"><g clip-path="url(#b852bc0488)"><path fill="#000000" d="M 468.808594 447.957031 C 468.285156 448.695312 467.6875 449.390625 467.25 450.175781 C 454.449219 473.019531 441.660156 495.871094 428.871094 518.722656 C 422.617188 529.90625 416.371094 541.097656 410.105469 552.277344 C 408.640625 554.886719 406.542969 555.804688 404.769531 554.121094 C 400.648438 550.203125 396.382812 546.300781 393.03125 541.753906 C 389.226562 536.582031 386.367188 530.710938 383.070312 525.160156 C 366.445312 497.15625 349.8125 469.15625 333.183594 441.15625 C 332.265625 439.613281 331.941406 438.308594 332.179688 437.296875 C 332.527344 435.816406 334.082031 434.964844 336.761719 434.914062 C 345.046875 434.769531 353.332031 434.695312 361.617188 434.582031 C 364.605469 434.542969 365.867188 434.054688 366.308594 432.171875 C 366.476562 431.46875 366.527344 430.570312 366.511719 429.429688 C 365.832031 374.472656 365.148438 319.507812 364.464844 264.546875 C 364.453125 263.484375 364.507812 262.632812 364.667969 261.949219 C 365.125 260.015625 366.429688 259.464844 369.449219 259.425781 C 378.101562 259.316406 386.753906 259.25 395.40625 259.097656 C 403.304688 258.960938 411.203125 258.738281 419.097656 258.550781 L 421.253906 259.058594 C 424.230469 262.046875 427.148438 265.09375 430.199219 268.003906 C 431.710938 269.445312 432.335938 270.984375 432.359375 273.105469 C 432.867188 317.910156 433.453125 362.710938 434.019531 407.511719 C 434.128906 416.152344 434.230469 424.792969 434.339844 433.578125 C 441.023438 433.484375 447.457031 433.351562 453.890625 433.332031 C 455.230469 433.328125 457.03125 433.25 457.84375 434.023438 C 461.816406 437.800781 465.519531 441.847656 469.320312 445.804688 L 468.8125 447.960938 M 471.066406 448.492188 L 471.574219 446.332031 C 471.753906 445.570312 471.535156 444.765625 470.988281 444.199219 C 470 443.167969 469.015625 442.132812 468.03125 441.09375 C 465.269531 438.1875 462.414062 435.175781 459.4375 432.347656 C 458.011719 430.988281 455.800781 431.003906 454.1875 431.019531 L 453.882812 431.019531 C 449.132812 431.035156 444.480469 431.109375 439.554688 431.1875 L 436.625 431.230469 L 436.550781 425.3125 L 436.332031 407.484375 L 436.027344 383.464844 C 435.558594 346.671875 435.089844 309.878906 434.671875 273.082031 C 434.640625 270.316406 433.726562 268.171875 431.796875 266.328125 C 429.660156 264.296875 427.542969 262.144531 425.496094 260.066406 C 424.628906 259.1875 423.761719 258.304688 422.890625 257.429688 C 422.585938 257.121094 422.203125 256.90625 421.78125 256.808594 L 419.628906 256.300781 C 419.4375 256.253906 419.242188 256.234375 419.042969 256.238281 L 411.785156 256.414062 C 406.3125 256.550781 400.839844 256.6875 395.367188 256.785156 C 389.601562 256.886719 383.835938 256.949219 378.074219 257.015625 C 375.1875 257.042969 372.304688 257.078125 369.421875 257.113281 C 367.472656 257.140625 363.414062 257.191406 362.417969 261.417969 C 362.222656 262.253906 362.136719 263.257812 362.152344 264.578125 L 363.433594 367.632812 L 364.203125 429.460938 C 364.214844 430.46875 364.167969 431.179688 364.058594 431.640625 C 364 431.894531 363.945312 431.972656 363.945312 431.972656 C 363.894531 432.007812 363.5 432.242188 361.589844 432.269531 C 358.765625 432.304688 355.941406 432.339844 353.117188 432.375 C 347.652344 432.441406 342.1875 432.503906 336.722656 432.601562 C 331.644531 432.691406 330.289062 435.25 329.929688 436.765625 C 329.546875 438.402344 329.972656 440.277344 331.195312 442.339844 L 340.246094 457.574219 C 353.859375 480.492188 367.472656 503.417969 381.085938 526.339844 C 382.105469 528.0625 383.109375 529.855469 384.078125 531.589844 C 386.242188 535.464844 388.476562 539.464844 391.171875 543.125 C 394.332031 547.417969 398.246094 551.125 402.035156 554.710938 L 403.179688 555.796875 C 404.390625 556.949219 405.882812 557.460938 407.382812 557.234375 C 409.214844 556.957031 410.902344 555.601562 412.128906 553.410156 C 415.964844 546.570312 419.789062 539.71875 423.617188 532.871094 L 430.894531 519.855469 C 443.683594 497 456.46875 474.148438 469.269531 451.308594 C 469.492188 450.910156 469.8125 450.492188 470.144531 450.050781 C 470.332031 449.800781 470.519531 449.550781 470.699219 449.300781 C 470.875 449.054688 471 448.78125 471.066406 448.488281 Z M 471.066406 448.492188 " fill-opacity="1" fill-rule="nonzero"/></g></g></g><g clip-path="url(#c195a3198e)"><g clip-path="url(#9f107af769)"><g clip-path="url(#2d743672a1)"><path fill="#baeea1" d="M 372.976562 270.84375 C 373.453125 268.828125 375.226562 267.40625 377.300781 267.378906 L 428.882812 266.710938 C 431.363281 266.675781 433.40625 268.671875 433.441406 271.152344 L 435.613281 439.289062 C 435.722656 439.445312 435.796875 439.621094 435.796875 439.800781 C 435.8125 441.007812 436.808594 441.972656 438.011719 441.957031 L 465.8125 441.601562 C 467.210938 441.582031 468.507812 442.195312 469.378906 443.28125 C 470.257812 444.375 470.578125 445.777344 470.261719 447.121094 C 470.164062 447.53125 470.007812 447.929688 469.800781 448.304688 L 410.683594 553.820312 C 409.886719 555.238281 408.441406 556.101562 406.816406 556.121094 C 405.1875 556.144531 403.71875 555.320312 402.886719 553.921875 L 341.066406 449.96875 C 340.464844 448.957031 340.28125 447.777344 340.546875 446.644531 C 341.023438 444.625 342.804688 443.191406 344.878906 443.164062 L 372.878906 442.800781 C 373.886719 442.789062 374.75 442.097656 374.980469 441.121094 C 375.023438 440.945312 375.039062 440.765625 375.039062 440.585938 L 372.855469 271.9375 C 372.851562 271.566406 372.894531 271.199219 372.976562 270.839844 Z M 372.976562 270.84375 " fill-opacity="1" fill-rule="nonzero"/></g></g></g><g clip-path="url(#09c3609f4d)"><g clip-path="url(#cd353e9759)"><g clip-path="url(#468962664d)"><path fill="#000000" d="M 469.132812 446.855469 C 469.0625 447.15625 468.949219 447.453125 468.789062 447.738281 L 439.207031 500.539062 L 409.675781 553.253906 C 408.417969 555.5 405.199219 555.542969 403.882812 553.328125 L 373.023438 501.4375 L 342.058594 449.375 C 341.585938 448.578125 341.488281 447.703125 341.671875 446.910156 C 342.003906 445.5 343.246094 444.34375 344.890625 444.320312 L 372.894531 443.960938 C 374.460938 443.941406 375.761719 442.847656 376.105469 441.386719 C 376.167969 441.125 376.199219 440.855469 376.195312 440.574219 L 374.015625 271.925781 C 374.011719 271.644531 374.042969 271.371094 374.105469 271.109375 C 374.449219 269.652344 375.75 268.558594 377.316406 268.535156 L 428.898438 267.871094 C 430.742188 267.847656 432.261719 269.324219 432.285156 271.171875 L 434.464844 439.820312 L 434.640625 439.820312 C 434.664062 441.667969 436.183594 443.144531 438.03125 443.121094 L 465.828125 442.761719 C 468.074219 442.730469 469.613281 444.832031 469.136719 446.859375 M 471.386719 447.390625 C 471.789062 445.695312 471.386719 443.929688 470.28125 442.558594 C 469.191406 441.195312 467.554688 440.425781 465.800781 440.449219 L 438.003906 440.808594 C 437.628906 440.8125 437.382812 440.625 437.269531 440.515625 C 437.15625 440.40625 436.960938 440.164062 436.957031 439.789062 C 436.953125 439.476562 436.886719 439.175781 436.769531 438.90625 L 434.597656 271.140625 C 434.578125 269.628906 433.972656 268.214844 432.890625 267.160156 C 431.808594 266.105469 430.378906 265.535156 428.867188 265.558594 L 377.289062 266.222656 C 374.683594 266.257812 372.449219 268.046875 371.851562 270.578125 C 371.746094 271.027344 371.695312 271.492188 371.703125 271.953125 L 373.882812 440.605469 C 373.882812 440.6875 373.875 440.777344 373.855469 440.855469 C 373.75 441.316406 373.339844 441.640625 372.867188 441.648438 L 344.863281 442.007812 C 342.261719 442.042969 340.023438 443.839844 339.421875 446.378906 C 339.085938 447.804688 339.316406 449.289062 340.070312 450.558594 L 371.035156 502.625 L 401.894531 554.511719 C 402.941406 556.273438 404.785156 557.304688 406.832031 557.28125 C 408.878906 557.253906 410.695312 556.171875 411.695312 554.386719 L 441.226562 501.671875 L 470.808594 448.867188 C 471.070312 448.402344 471.265625 447.902344 471.386719 447.386719 Z M 471.386719 447.390625 " fill-opacity="1" fill-rule="nonzero"/></g></g></g></svg>